<svg width="17" height="30" viewBox="0 0 17 30" fill="none" xmlns="http://www.w3.org/2000/svg">
<path d="M2 13L-1.74846e-07 13L1.74846e-07 17L2 17L2 13ZM16.4142 16.4142C17.1953 15.6332 17.1953 14.3668 16.4142 13.5858L3.68629 0.857864C2.90524 0.0768157 1.63891 0.0768158 0.857863 0.857864C0.0768149 1.63891 0.076815 2.90524 0.857864 3.68629L12.1716 15L0.857866 26.3137C0.0768171 27.0948 0.0768172 28.3611 0.857866 29.1421C1.63891 29.9232 2.90524 29.9232 3.68629 29.1421L16.4142 16.4142ZM2 17L15 17L15 13L2 13L2 17Z" fill="#3A3A60"/>
</svg>
