<svg width="20" height="20" viewBox="0 0 20 20" fill="none" xmlns="http://www.w3.org/2000/svg">
<mask id="mask0_266_2" style="mask-type:alpha" maskUnits="userSpaceOnUse" x="0" y="0" width="20" height="20">
<rect width="20" height="20" fill="#D9D9D9"/>
</mask>
<g mask="url(#mask0_266_2)">
<path d="M13.0195 13.3141C12.8988 13.1763 12.8384 13.0235 12.8384 12.8558C12.8384 12.688 12.8988 12.5438 13.0195 12.4231L14.6092 10.8333H8.22138C8.04404 10.8333 7.89554 10.7735 7.77588 10.6539C7.65623 10.5342 7.5964 10.3857 7.5964 10.2084C7.5964 10.031 7.65623 9.88251 7.77588 9.76285C7.89554 9.64319 8.04404 9.58335 8.22138 9.58335H14.6092L13.0115 7.9856C12.8875 7.86167 12.8256 7.71585 12.8256 7.54813C12.8256 7.38039 12.8902 7.23188 13.0195 7.1026C13.1402 6.97334 13.2844 6.90871 13.4522 6.90871C13.6199 6.90871 13.7641 6.96907 13.8848 7.08979L16.4762 9.6811C16.5542 9.7591 16.6092 9.84137 16.6412 9.9279C16.6733 10.0144 16.6893 10.1079 16.6893 10.2084C16.6893 10.3088 16.6733 10.4023 16.6412 10.4888C16.6092 10.5753 16.5542 10.6576 16.4762 10.7356L13.8768 13.3349C13.7444 13.4674 13.5985 13.5272 13.4393 13.5144C13.2802 13.5016 13.1402 13.4348 13.0195 13.3141ZM4.50347 17.5C4.08254 17.5 3.72624 17.3542 3.43457 17.0625C3.1429 16.7708 2.99707 16.4145 2.99707 15.9936V4.4231C2.99707 4.00216 3.1429 3.64585 3.43457 3.35419C3.72624 3.06252 4.08254 2.91669 4.50347 2.91669H9.4714C9.64875 2.91669 9.79726 2.97652 9.91692 3.09619C10.0366 3.21584 10.0964 3.36434 10.0964 3.54169C10.0964 3.71903 10.0366 3.86753 9.91692 3.98719C9.79726 4.10684 9.64875 4.16667 9.4714 4.16667H4.50347C4.43935 4.16667 4.38059 4.19338 4.32717 4.24679C4.27374 4.30022 4.24703 4.35899 4.24703 4.4231V15.9936C4.24703 16.0577 4.27374 16.1165 4.32717 16.1699C4.38059 16.2233 4.43935 16.25 4.50347 16.25H9.4714C9.64875 16.25 9.79726 16.3099 9.91692 16.4295C10.0366 16.5492 10.0964 16.6977 10.0964 16.875C10.0964 17.0524 10.0366 17.2009 9.91692 17.3205C9.79726 17.4402 9.64875 17.5 9.4714 17.5H4.50347Z" fill="#FF0000"/>
</g>
</svg>
