<svg width="22" height="24" viewBox="0 0 22 24" fill="none" xmlns="http://www.w3.org/2000/svg">
<mask id="mask0_30_50" style="mask-type:luminance" maskUnits="userSpaceOnUse" x="0" y="0" width="22" height="24">
<path d="M22 0H0V24H22V0Z" fill="white"/>
</mask>
<g mask="url(#mask0_30_50)">
<path d="M22 6.6803C21.0162 5.998 19.8327 5.6 18.5593 5.6C15.1426 5.6 12.3729 8.46536 12.3729 12C12.3729 15.5346 15.1426 18.4 18.5593 18.4C19.8327 18.4 21.0162 18.002 22 17.3197C20.1044 21.2783 16.1592 24 11.5996 24C5.19331 24 0 18.6274 0 12C0 5.37258 5.19331 0 11.5996 0C16.1592 0 20.1044 2.72166 22 6.6803Z" fill="#907FDF"/>
<path d="M18.5594 5.60007C19.8327 5.60007 21.0162 5.99806 22 6.68037C21.9985 6.67722 21.997 6.67407 21.9955 6.67092C19.9768 5.19032 17.5104 4.32007 14.8475 4.32007C8.01411 4.32007 2.47461 10.0508 2.47461 17.1201C2.47461 18.0174 2.56383 18.8931 2.73367 19.7384C4.86147 22.3448 8.04372 24.0001 11.5996 24.0001C16.1593 24.0001 20.1044 21.2784 22 17.3197C21.0162 18.0021 19.8327 18.4001 18.5594 18.4001C15.1427 18.4001 12.3729 15.5347 12.3729 12.0001C12.3729 8.46543 15.1427 5.60007 18.5594 5.60007Z" fill="#524B9B"/>
<path d="M21.0761 6.15166C20.3073 5.79711 19.4557 5.60004 18.5597 5.60004C15.143 5.60004 12.3732 8.4654 12.3732 12C12.3732 15.5347 15.143 18.4 18.5597 18.4C19.833 18.4 21.0165 18.002 22.0003 17.3197C20.1047 21.2784 16.1596 24 11.5999 24C11.3306 24 11.0635 23.9905 10.7989 23.9719C8.1976 22.0921 6.49609 18.9716 6.49609 15.44C6.49609 9.69628 10.997 5.04004 16.5491 5.04004C18.1775 5.04004 19.7155 5.44059 21.0761 6.15166Z" fill="#3A3A60"/>
</g>
</svg>
