<svg width="110" height="120" viewBox="0 0 110 120" fill="none" xmlns="http://www.w3.org/2000/svg">
<mask id="mask0_204_25" style="mask-type:luminance" maskUnits="userSpaceOnUse" x="0" y="0" width="110" height="120">
<path d="M110 0H0V120H110V0Z" fill="white"/>
</mask>
<g mask="url(#mask0_204_25)">
<path d="M110 33.4015C105.081 29.99 99.1637 28 92.7966 28C75.7132 28 61.8644 42.3268 61.8644 60C61.8644 77.6732 75.7132 92 92.7966 92C99.1637 92 105.081 90.01 110 86.5984C100.522 106.392 80.7961 120 57.9979 120C25.9666 120 0 93.1372 0 60C0 26.8629 25.9666 0 57.9979 0C80.7961 0 100.522 13.6083 110 33.4015Z" fill="#907FDF"/>
<path d="M92.7968 28.0003C99.1634 28.0003 105.081 29.9903 110 33.4019C109.992 33.3861 109.985 33.3703 109.977 33.3546C99.8841 25.9516 87.5519 21.6003 74.2375 21.6003C40.0705 21.6003 12.373 50.2539 12.373 85.6003C12.373 90.0871 12.8192 94.4655 13.6684 98.6919C24.3074 111.724 40.2186 120 57.9981 120C80.7963 120 100.522 106.392 110 86.5987C105.081 90.0103 99.1634 92.0003 92.7968 92.0003C75.7133 92.0003 61.8646 77.6735 61.8646 60.0003C61.8646 42.3271 75.7133 28.0003 92.7968 28.0003Z" fill="#524B9B"/>
<path d="M105.38 30.7583C101.536 28.9856 97.2784 28.0002 92.7983 28.0002C75.7148 28.0002 61.8661 42.327 61.8661 60.0002C61.8661 77.6734 75.7148 92.0002 92.7983 92.0002C99.1649 92.0002 105.083 90.0102 110.002 86.5986C100.524 106.392 80.7978 120 57.9995 120C56.6532 120 55.3177 119.953 53.9946 119.859C40.988 110.461 32.4805 94.8582 32.4805 77.2002C32.4805 48.4814 54.9848 25.2002 82.7453 25.2002C90.8875 25.2002 98.5776 27.203 105.38 30.7583Z" fill="#3A3A60"/>
</g>
</svg>
